<?xml version="1.0" encoding="UTF-8" standalone="no"?>
<!-- Created with Inkscape (http://www.inkscape.org/) -->
<svg xmlns:dc="http://purl.org/dc/elements/1.1/" xmlns:cc="http://creativecommons.org/ns#" xmlns:rdf="http://www.w3.org/1999/02/22-rdf-syntax-ns#" xmlns:svg="http://www.w3.org/2000/svg" xmlns="http://www.w3.org/2000/svg" xmlns:sodipodi="http://sodipodi.sourceforge.net/DTD/sodipodi-0.dtd" xmlns:inkscape="http://www.inkscape.org/namespaces/inkscape" version="1.0" width="800" height="215" id="svg2" inkscape:version="0.48pre1 r9509" sodipodi:docname="Sinus wave.svg">
  <metadata id="metadata45">
    <rdf:RDF>
      <cc:Work rdf:about="">
        <dc:format>image/svg+xml</dc:format>
        <dc:type rdf:resource="http://purl.org/dc/dcmitype/StillImage"/>
        <dc:title/>
      </cc:Work>
    </rdf:RDF>
  </metadata>
  <sodipodi:namedview pagecolor="#ffffff" bordercolor="#666666" borderopacity="1" objecttolerance="10" gridtolerance="10" guidetolerance="10" inkscape:pageopacity="0" inkscape:pageshadow="2" inkscape:window-width="1353" inkscape:window-height="662" id="namedview43" showgrid="false" inkscape:zoom="0.70710678" inkscape:cx="492.37603" inkscape:cy="124.47035" inkscape:window-x="0" inkscape:window-y="0" inkscape:window-maximized="0" inkscape:current-layer="svg2"/>
  <defs id="defs5">
    <marker refX="0" refY="0" orient="auto" style="overflow:visible" id="Arrow2Mend">
      <path d="M 8.7185878,4.0337352 -2.2072895,0.01601326 8.7185884,-4.0017078 c -1.7454984,2.3720609 -1.7354408,5.6174519 -6e-7,8.035443 z" transform="matrix(-0.6,0,0,-0.6,3,0)" style="font-size:12px;fill-rule:evenodd;stroke-width:0.625;stroke-linejoin:round" id="path5820" inkscape:connector-curvature="0"/>
    </marker>
    <marker refX="0" refY="0" orient="auto" style="overflow:visible" id="Arrow1Mstart">
      <path d="M 0,0 5,-5 -12.5,0 5,5 0,0 z" transform="scale(0.4,0.4)" style="fill-rule:evenodd;stroke:#000000;stroke-width:1pt;marker-start:none" id="path5828" inkscape:connector-curvature="0"/>
    </marker>
  </defs>
  <path style="fill:none;stroke:#000000;stroke-width:0.5;stroke-linecap:butt;stroke-linejoin:miter;stroke-miterlimit:4;stroke-opacity:1;stroke-dasharray:none" d="m -294.017,109.63712 c 0,0 7.33248,-16.105313 11.24329,-24.040523 3.27732,-6.649829 6.26774,-13.483324 10.23778,-19.744304 3.11987,-4.920222 6.37641,-9.884833 10.60343,-13.894139 2.78382,-2.64044 5.93744,-5.081714 9.50651,-6.490026 1.49117,-0.588399 3.15717,-0.880653 4.75326,-0.73127 3.28145,0.307123 6.6161,1.411582 9.3237,3.290717 6.59267,4.575465 11.00654,11.780951 15.44809,18.46458 5.33254,8.024383 9.02424,17.029462 13.25428,25.685872 6.57204,13.449123 12.38276,27.259053 18.83021,40.768343 3.05789,6.40718 5.89118,12.94128 9.41511,19.10444 2.37004,4.14506 5.0006,8.15148 7.86116,11.97455 2.05917,2.75203 3.91722,5.8068 6.67284,7.86116 3.76265,2.80511 8.19949,5.86258 12.88864,5.66735 5.23101,-0.21779 9.88227,-4.02553 13.80273,-7.49553 5.26752,-4.66228 8.48537,-11.24177 12.24879,-17.18485 2.37181,-3.74549 4.48133,-7.65679 6.49002,-11.60892 2.8107,-5.5301 5.1609,-11.28249 7.76975,-16.91063 1.96628,-4.24191 6.89565,-14.68826 6.89565,-14.68826" id="path3102" inkscape:connector-curvature="0" sodipodi:nodetypes="csssssssssssssssssc"/>
  <path style="fill:none;stroke:#000000;stroke-width:0.5;stroke-linecap:butt;stroke-linejoin:miter;stroke-miterlimit:4;stroke-opacity:1;stroke-dasharray:none" d="m -106.7703,109.66458 c 0,0 7.332478,-16.105313 11.243288,-24.040523 3.27732,-6.649829 6.26774,-13.483324 10.23778,-19.744304 3.11987,-4.920222 6.37641,-9.884833 10.60343,-13.894139 2.78382,-2.64044 5.93744,-5.081714 9.50651,-6.490026 1.49117,-0.588399 3.15717,-0.880653 4.75326,-0.73127 3.28145,0.307123 6.6161,1.411582 9.3237,3.290717 6.59267,4.575465 11.00654,11.780951 15.44809,18.46458 5.33254,8.024383 9.02424,17.029462 13.25428,25.685872 6.57204,13.449123 12.38276,27.259053 18.8302099,40.768343 3.05788996,6.40718 5.89118,12.94128 9.41511,19.10444 2.37004,4.14506 5.0006001,8.15148 7.8611601,11.97455 2.05917,2.75203 3.91722,5.8068 6.67284,7.86116 3.76265,2.80511 8.19949,5.86258 12.88864,5.66735 5.23101,-0.21779 9.88227,-4.02553 13.80273,-7.49553 5.26752,-4.66228 8.48537,-11.24177 12.24879,-17.18485 2.37181,-3.74549 4.48133,-7.65679 6.49002,-11.60892 2.8107,-5.5301 5.1609,-11.28249 7.76975,-16.91063 1.96628,-4.24191 6.89565,-14.68826 6.89565,-14.68826" id="path3102-3" inkscape:connector-curvature="0" sodipodi:nodetypes="csssssssssssssssssc"/>
  <path style="fill:none;stroke:#000000;stroke-width:0.5;stroke-linecap:butt;stroke-linejoin:miter;stroke-miterlimit:4;stroke-opacity:1;stroke-dasharray:none" d="m 80.482758,109.68286 c 0,0 7.33248,-16.105313 11.24329,-24.040523 3.27732,-6.649826 6.26774,-13.483326 10.237782,-19.744306 3.11987,-4.92022 6.37641,-9.88483 10.60343,-13.89414 2.78382,-2.640435 5.93744,-5.081709 9.50651,-6.490021 1.49117,-0.588399 3.15717,-0.880653 4.75326,-0.73127 3.28145,0.307123 6.6161,1.411582 9.3237,3.290717 6.59267,4.575464 11.00654,11.780954 15.44809,18.464584 5.33254,8.02438 9.02424,17.029456 13.25428,25.685866 6.57204,13.449123 12.38276,27.259053 18.83021,40.768343 3.05789,6.40718 5.89118,12.94128 9.41511,19.10444 2.37004,4.14506 5.0006,8.15148 7.86116,11.97455 2.05917,2.75203 3.91722,5.8068 6.67284,7.86116 3.76265,2.80511 8.19949,5.86258 12.88864,5.66735 5.23101,-0.21779 9.88227,-4.02553 13.80273,-7.49553 5.26752,-4.66228 8.48537,-11.24177 12.24879,-17.18485 2.37181,-3.74549 4.48133,-7.65679 6.49002,-11.60892 2.8107,-5.5301 5.1609,-11.28249 7.76975,-16.91063 1.96628,-4.24191 6.89565,-14.68826 6.89565,-14.68826" id="path3102-5" inkscape:connector-curvature="0" sodipodi:nodetypes="csssssssssssssssssc"/>
  <path style="fill:none;stroke:#000000;stroke-width:0.5;stroke-linecap:butt;stroke-linejoin:miter;stroke-miterlimit:4;stroke-opacity:1;stroke-dasharray:none" d="m 267.72946,109.71032 c 0,0 7.33248,-16.105313 11.24329,-24.040523 3.27732,-6.649826 6.26774,-13.483326 10.23778,-19.744306 3.11987,-4.92022 6.37641,-9.88483 10.60343,-13.89414 2.78382,-2.640435 5.93744,-5.081709 9.50651,-6.490021 1.49117,-0.588399 3.15717,-0.880653 4.75326,-0.73127 3.28145,0.307123 6.6161,1.411582 9.3237,3.290717 6.59267,4.575464 11.00654,11.780954 15.44809,18.464584 5.33254,8.02438 9.02424,17.029456 13.25428,25.685866 6.57204,13.449123 12.38276,27.259053 18.83021,40.768343 3.05789,6.40718 5.89118,12.94128 9.41511,19.10444 2.37004,4.14506 5.0006,8.15148 7.86116,11.97455 2.05917,2.75203 3.91722,5.8068 6.67284,7.86116 3.76265,2.80511 8.19949,5.86258 12.88864,5.66735 5.23101,-0.21779 9.88227,-4.02553 13.80273,-7.49553 5.26752,-4.66228 8.48537,-11.24177 12.24879,-17.18485 2.37181,-3.74549 4.48133,-7.65679 6.49002,-11.60892 2.8107,-5.5301 5.1609,-11.28249 7.76975,-16.91063 1.96628,-4.24191 6.89565,-14.68826 6.89565,-14.68826" id="path3102-3-0" inkscape:connector-curvature="0" sodipodi:nodetypes="csssssssssssssssssc"/>
  <path style="fill:none;stroke:#000000;stroke-width:0.5;stroke-linecap:butt;stroke-linejoin:miter;stroke-miterlimit:4;stroke-opacity:1;stroke-dasharray:none" d="m 455.01022,109.64791 c 0,0 7.33248,-16.105313 11.24329,-24.040523 3.27732,-6.649832 6.26774,-13.483332 10.23778,-19.744312 3.11987,-4.92022 6.37641,-9.88483 10.60343,-13.89414 2.78382,-2.64044 5.93744,-5.08171 9.50651,-6.49002 1.49117,-0.5884 3.15717,-0.88065 4.75326,-0.73127 3.28145,0.30712 6.6161,1.41158 9.3237,3.29072 6.59267,4.57546 11.00654,11.78095 15.44809,18.46458 5.33254,8.02438 9.02424,17.029462 13.25428,25.685872 6.57204,13.449123 12.38276,27.259053 18.83021,40.768343 3.05789,6.40718 5.89118,12.94128 9.41511,19.10444 2.37004,4.14506 5.0006,8.15148 7.86116,11.97455 2.05917,2.75203 3.91722,5.8068 6.67285,7.86116 3.7627,2.80511 8.1995,5.86258 12.8886,5.66735 5.2311,-0.21779 9.8823,-4.02553 13.8028,-7.49553 5.2675,-4.66228 8.4853,-11.24177 12.2488,-17.18485 2.3718,-3.74549 4.4813,-7.65679 6.49,-11.60892 2.8107,-5.5301 5.1609,-11.28249 7.7697,-16.91063 1.9663,-4.24191 6.8957,-14.68826 6.8957,-14.68826" id="path3102-4" inkscape:connector-curvature="0" sodipodi:nodetypes="csssssssssssssssssc"/>
  <path style="fill:none;stroke:#000000;stroke-width:0.5;stroke-linecap:butt;stroke-linejoin:miter;stroke-miterlimit:4;stroke-opacity:1;stroke-dasharray:none" d="m 642.25689,109.67537 c 0,0 7.3325,-16.105313 11.2433,-24.040523 3.2774,-6.649832 6.2678,-13.483332 10.2378,-19.744312 3.1199,-4.92022 6.3764,-9.88483 10.6034,-13.89414 2.7839,-2.64044 5.9375,-5.08171 9.5066,-6.49002 1.4911,-0.5884 3.1571,-0.88065 4.7532,-0.73127 3.2815,0.30712 6.6161,1.41158 9.3237,3.29072 6.5927,4.57546 11.0066,11.78095 15.4481,18.46458 5.3325,8.02438 9.0242,17.029462 13.2543,25.685872 6.572,13.449123 12.3827,27.259053 18.8302,40.768343 3.0579,6.40718 5.8912,12.94128 9.4151,19.10444 2.37,4.14506 5.0006,8.15148 7.8612,11.97455 2.0591,2.75203 3.9172,5.8068 6.6728,7.86116 3.7627,2.80511 8.1995,5.86258 12.8886,5.66735 5.2311,-0.21779 9.8823,-4.02553 13.8028,-7.49553 5.2675,-4.66228 8.4853,-11.24177 12.2488,-17.18485 2.3718,-3.74549 4.4813,-7.65679 6.49,-11.60892 2.8107,-5.5301 5.1609,-11.28249 7.7697,-16.91063 1.9663,-4.24191 6.8957,-14.68826 6.8957,-14.68826" id="path3102-3-3" inkscape:connector-curvature="0" sodipodi:nodetypes="csssssssssssssssssc"/>
  <path style="fill:none;stroke:#000000;stroke-width:0.5;stroke-linecap:butt;stroke-linejoin:miter;stroke-miterlimit:4;stroke-opacity:1;stroke-dasharray:none" d="m 829.50999,109.69365 c 0,0 7.3325,-16.105313 11.2433,-24.040523 3.2773,-6.649832 6.2677,-13.483332 10.2378,-19.744312 3.1198,-4.92022 6.3764,-9.88483 10.6034,-13.89414 2.7838,-2.64043 5.9374,-5.08171 9.5065,-6.49002 1.4912,-0.5884 3.1572,-0.88065 4.7533,-0.73127 3.2814,0.30712 6.6161,1.41158 9.3237,3.29072 6.5926,4.57546 11.0065,11.78095 15.4481,18.46458 5.3325,8.02438 9.0242,17.029462 13.2542,25.685872 6.5721,13.449123 12.3828,27.259053 18.8303,40.768343 3.0578,6.40718 5.8911,12.94128 9.4151,19.10444 2.37,4.14506 5.0006,8.15148 7.8611,11.97455 2.0592,2.75203 3.9172,5.8068 6.6729,7.86116 3.7626,2.80511 8.1995,5.86258 12.8886,5.66735 5.231,-0.21779 9.8823,-4.02553 13.8027,-7.49553 5.2676,-4.66228 8.4854,-11.24177 12.2488,-17.18485 2.3718,-3.74549 4.48141,-7.65679 6.49001,-11.60892 2.8107,-5.5301 5.1609,-11.28249 7.7698,-16.91063 1.9663,-4.24191 6.8956,-14.68826 6.8956,-14.68826" id="path3102-5-8" inkscape:connector-curvature="0" sodipodi:nodetypes="csssssssssssssssssc"/>
  <path style="fill:none;stroke:#000000;stroke-width:0.5;stroke-linecap:butt;stroke-linejoin:miter;stroke-miterlimit:4;stroke-opacity:1;stroke-dasharray:none" d="m 1016.7567,109.72111 c 0,0 7.3325,-16.105313 11.2433,-24.040523 3.2773,-6.649832 6.2677,-13.483332 10.2378,-19.744312 3.1198,-4.92022 6.3764,-9.88483 10.6034,-13.89414 2.7838,-2.64043 5.9374,-5.08171 9.5065,-6.49002 1.4912,-0.5884 3.1572,-0.88065 4.7533,-0.73127 3.2814,0.30712 6.6161,1.41158 9.3237,3.29072 6.5926,4.57546 11.0065,11.78095 15.4481,18.46458 5.3325,8.02438 9.0242,17.029462 13.2542,25.685872 6.5721,13.449123 12.3828,27.259053 18.8303,40.768343 3.0578,6.40718 5.8911,12.94128 9.4151,19.10444 2.37,4.14506 5.0006,8.15148 7.8611,11.97455 2.0592,2.75203 3.9172,5.8068 6.6729,7.86116 3.7626,2.80511 8.1995,5.86258 12.8886,5.66735 5.231,-0.21779 9.8823,-4.02553 13.8027,-7.49553 5.2676,-4.66228 8.4854,-11.24177 12.2488,-17.18485 2.3718,-3.74549 4.4814,-7.65679 6.49,-11.60892 2.8107,-5.5301 5.1609,-11.28249 7.7698,-16.91063 1.9663,-4.24191 6.8956,-14.68826 6.8956,-14.68826" id="path3102-3-0-0" inkscape:connector-curvature="0" sodipodi:nodetypes="csssssssssssssssssc"/>
  <path style="fill:none;stroke:#000000;stroke-width:0.5;stroke-linecap:butt;stroke-linejoin:miter;stroke-miterlimit:4;stroke-opacity:1;stroke-dasharray:none" d="m 1204.0416,109.6647 c 0,0 7.3325,-16.105313 11.2433,-24.040523 3.2773,-6.649831 6.2677,-13.483331 10.2378,-19.744311 3.1199,-4.92022 6.3764,-9.88483 10.6034,-13.89413 2.7838,-2.64044 5.9375,-5.08172 9.5065,-6.49003 1.4912,-0.5884 3.1572,-0.88065 4.7533,-0.73127 3.2814,0.30712 6.6161,1.41158 9.3237,3.29072 6.5927,4.57546 11.0065,11.78095 15.4481,18.46458 5.3325,8.02438 9.0242,17.029461 13.2543,25.685871 6.572,13.449123 12.3827,27.259053 18.8302,40.768343 3.0579,6.40718 5.8911,12.94128 9.4151,19.10444 2.37,4.14506 5.0006,8.15148 7.8611,11.97455 2.0592,2.75203 3.9173,5.8068 6.6729,7.86116 3.7626,2.80511 8.1995,5.86258 12.8886,5.66735 5.231,-0.21779 9.8823,-4.02553 13.8027,-7.49553 5.2676,-4.66228 8.4854,-11.24177 12.2488,-17.18485 2.3718,-3.74549 4.4814,-7.65679 6.4901,-11.60892 2.8107,-5.5301 5.1609,-11.28249 7.7697,-16.91063 1.9663,-4.24191 6.8957,-14.68826 6.8957,-14.68826" id="path3102-53" inkscape:connector-curvature="0" sodipodi:nodetypes="csssssssssssssssssc"/>
  <path style="fill:none;stroke:#000000;stroke-width:0.5;stroke-linecap:butt;stroke-linejoin:miter;stroke-miterlimit:4;stroke-opacity:1;stroke-dasharray:none" d="m 1391.2883,109.69216 c 0,0 7.3325,-16.105313 11.2433,-24.040523 3.2773,-6.649831 6.2677,-13.483331 10.2378,-19.744311 3.1199,-4.92022 6.3764,-9.88483 10.6034,-13.89413 2.7838,-2.64044 5.9375,-5.08172 9.5065,-6.49003 1.4912,-0.5884 3.1572,-0.88065 4.7533,-0.73127 3.2814,0.30712 6.6161,1.41158 9.3237,3.29072 6.5927,4.57546 11.0065,11.78095 15.4481,18.46458 5.3325,8.02438 9.0242,17.029461 13.2543,25.685871 6.572,13.449123 12.3827,27.259053 18.8302,40.768343 3.0579,6.40718 5.8911,12.94128 9.4151,19.10444 2.37,4.14506 5.0006,8.15148 7.8611,11.97455 2.0592,2.75203 3.9173,5.8068 6.6729,7.86116 3.7626,2.80511 8.1995,5.86258 12.8886,5.66735 5.231,-0.21779 9.8823,-4.02553 13.8027,-7.49553 5.2676,-4.66228 8.4854,-11.24177 12.2488,-17.18485 2.3718,-3.74549 4.4814,-7.65679 6.4901,-11.60892 2.8107,-5.5301 5.1609,-11.28249 7.7697,-16.91063 1.9663,-4.24191 6.8957,-14.68826 6.8957,-14.68826" id="path3102-3-4" inkscape:connector-curvature="0" sodipodi:nodetypes="csssssssssssssssssc"/>
  <path style="fill:none;stroke:#000000;stroke-width:0.5;stroke-linecap:butt;stroke-linejoin:miter;stroke-miterlimit:4;stroke-opacity:1;stroke-dasharray:none" d="m 1578.5414,109.71044 c 0,0 7.3325,-16.105313 11.2433,-24.040523 3.2773,-6.649831 6.2677,-13.483331 10.2377,-19.744311 3.1199,-4.92022 6.3765,-9.88483 10.6035,-13.89414 2.7838,-2.64043 5.9374,-5.08171 9.5065,-6.49002 1.4912,-0.5884 3.1572,-0.88065 4.7532,-0.73127 3.2815,0.30712 6.6161,1.41158 9.3237,3.29072 6.5927,4.57546 11.0066,11.78095 15.4481,18.46458 5.3326,8.02438 9.0243,17.029461 13.2543,25.685871 6.5721,13.449123 12.3828,27.259053 18.8302,40.768343 3.0579,6.40718 5.8912,12.94128 9.4151,19.10444 2.3701,4.14506 5.0006,8.15148 7.8612,11.97455 2.0592,2.75203 3.9172,5.8068 6.6728,7.86116 3.7627,2.80511 8.1995,5.86258 12.8887,5.66735 5.231,-0.21779 9.8822,-4.02553 13.8027,-7.49553 5.2675,-4.66228 8.4854,-11.24177 12.2488,-17.18485 2.3718,-3.74549 4.4813,-7.65679 6.49,-11.60892 2.8107,-5.5301 5.1609,-11.28249 7.7698,-16.91063 1.9662,-4.24191 6.8956,-14.68826 6.8956,-14.68826" id="path3102-5-3" inkscape:connector-curvature="0" sodipodi:nodetypes="csssssssssssssssssc"/>
  <path style="fill:none;stroke:#000000;stroke-width:0.5;stroke-linecap:butt;stroke-linejoin:miter;stroke-miterlimit:4;stroke-opacity:1;stroke-dasharray:none" d="m 1765.7881,109.7379 c 0,0 7.3325,-16.105313 11.2433,-24.040523 3.2773,-6.649831 6.2677,-13.483331 10.2377,-19.744311 3.1199,-4.92022 6.3765,-9.88483 10.6035,-13.89414 2.7838,-2.64043 5.9374,-5.08171 9.5065,-6.49002 1.4912,-0.5884 3.1572,-0.88065 4.7532,-0.73127 3.2815,0.30712 6.6161,1.41158 9.3237,3.29072 6.5927,4.57546 11.0066,11.78095 15.4481,18.46458 5.3326,8.02438 9.0243,17.029461 13.2543,25.685871 6.5721,13.449123 12.3828,27.259053 18.8302,40.768343 3.0579,6.40718 5.8912,12.94128 9.4151,19.10444 2.3701,4.14506 5.0006,8.15148 7.8612,11.97455 2.0592,2.75203 3.9172,5.8068 6.6728,7.86116 3.7627,2.80511 8.1995,5.86258 12.8887,5.66735 5.231,-0.21779 9.8822,-4.02553 13.8027,-7.49553 5.2675,-4.66228 8.4854,-11.24177 12.2488,-17.18485 2.3718,-3.74549 4.4813,-7.65679 6.49,-11.60892 2.8107,-5.5301 5.1609,-11.28249 7.7698,-16.91063 1.9662,-4.24191 6.8956,-14.68826 6.8956,-14.68826" id="path3102-3-0-5" inkscape:connector-curvature="0" sodipodi:nodetypes="csssssssssssssssssc"/>
  <path style="fill:none;stroke:#000000;stroke-width:0.5;stroke-linecap:butt;stroke-linejoin:miter;stroke-miterlimit:4;stroke-opacity:1;stroke-dasharray:none" d="m 1953.0688,109.67549 c 0,0 7.3325,-16.105313 11.2433,-24.040523 3.2773,-6.649831 6.2678,-13.483331 10.2378,-19.744311 3.1199,-4.92022 6.3764,-9.88483 10.6034,-13.89414 2.7839,-2.64044 5.9375,-5.08171 9.5065,-6.49002 1.4912,-0.5884 3.1572,-0.88065 4.7533,-0.73127 3.2815,0.30712 6.6161,1.41158 9.3237,3.29072 6.5927,4.57546 11.0065,11.78095 15.4481,18.46458 5.3325,8.02438 9.0242,17.029461 13.2543,25.685871 6.572,13.449123 12.3827,27.259053 18.8302,40.768343 3.0579,6.40718 5.8912,12.94128 9.4151,19.10444 2.37,4.14506 5.0006,8.15148 7.8612,11.97455 2.0591,2.75203 3.9172,5.8068 6.6728,7.86116 3.7627,2.80511 8.1995,5.86258 12.8886,5.66735 5.2311,-0.21779 9.8823,-4.02553 13.8028,-7.49553 5.2675,-4.66228 8.4853,-11.24177 12.2488,-17.18485 2.3718,-3.74549 4.4813,-7.65679 6.49,-11.60892 2.8107,-5.5301 5.1609,-11.28249 7.7697,-16.91063 1.9663,-4.24191 6.8957,-14.68826 6.8957,-14.68826" id="path3102-4-1" inkscape:connector-curvature="0" sodipodi:nodetypes="csssssssssssssssssc"/>
  <path style="fill:none;stroke:#000000;stroke-width:0.5;stroke-linecap:butt;stroke-linejoin:miter;stroke-miterlimit:4;stroke-opacity:1;stroke-dasharray:none" d="m 2140.3155,109.70295 c 0,0 7.3325,-16.105313 11.2433,-24.040523 3.2774,-6.649831 6.2678,-13.483331 10.2378,-19.744311 3.1199,-4.92022 6.3764,-9.88483 10.6034,-13.89414 2.7839,-2.64044 5.9375,-5.08171 9.5066,-6.49002 1.4911,-0.5884 3.1571,-0.88065 4.7532,-0.73127 3.2815,0.30712 6.6161,1.41158 9.3237,3.29072 6.5927,4.57546 11.0066,11.78095 15.4481,18.46458 5.3325,8.02438 9.0242,17.029461 13.2543,25.685871 6.572,13.449123 12.3827,27.259053 18.8302,40.768343 3.0579,6.40718 5.8912,12.94128 9.4151,19.10444 2.37,4.14506 5.0006,8.15148 7.8612,11.97455 2.0591,2.75203 3.9172,5.8068 6.6728,7.86116 3.7627,2.80511 8.1995,5.86258 12.8886,5.66735 5.2311,-0.21779 9.8823,-4.02553 13.8028,-7.49553 5.2675,-4.66228 8.4853,-11.24177 12.2488,-17.18485 2.3718,-3.74549 4.4813,-7.65679 6.49,-11.60892 2.8107,-5.5301 5.1609,-11.28249 7.7697,-16.91063 1.9663,-4.24191 6.8957,-14.68826 6.8957,-14.68826" id="path3102-3-3-2" inkscape:connector-curvature="0" sodipodi:nodetypes="csssssssssssssssssc"/>
  <path style="fill:none;stroke:#000000;stroke-width:0.5;stroke-linecap:butt;stroke-linejoin:miter;stroke-miterlimit:4;stroke-opacity:1;stroke-dasharray:none" d="m 2327.5686,109.72123 c 0,0 7.3325,-16.105313 11.2433,-24.040523 3.2773,-6.649831 6.2677,-13.483331 10.2378,-19.744311 3.1198,-4.92022 6.3764,-9.88483 10.6034,-13.89414 2.7838,-2.64043 5.9374,-5.08171 9.5065,-6.49002 1.4912,-0.5884 3.1572,-0.88065 4.7533,-0.73127 3.2814,0.30712 6.6161,1.41158 9.3237,3.29072 6.5926,4.57546 11.0065,11.78095 15.4481,18.46458 5.3325,8.02438 9.0242,17.029461 13.2542,25.685871 6.5721,13.449123 12.3828,27.259053 18.8303,40.768343 3.0578,6.40718 5.8911,12.94128 9.4151,19.10444 2.37,4.14506 5.0006,8.15148 7.8611,11.97455 2.0592,2.75203 3.9172,5.8068 6.6729,7.86116 3.7626,2.80511 8.1995,5.86258 12.8886,5.66735 5.231,-0.21779 9.8823,-4.02553 13.8027,-7.49553 5.2676,-4.66228 8.4854,-11.24177 12.2488,-17.18485 2.3718,-3.74549 4.4814,-7.65679 6.49,-11.60892 2.8107,-5.5301 5.1609,-11.28249 7.7698,-16.91063 1.9663,-4.24191 6.8956,-14.68826 6.8956,-14.68826" id="path3102-5-8-7" inkscape:connector-curvature="0" sodipodi:nodetypes="csssssssssssssssssc"/>
  <path style="fill:none;stroke:#000000;stroke-width:0.5;stroke-linecap:butt;stroke-linejoin:miter;stroke-miterlimit:4;stroke-opacity:1;stroke-dasharray:none" d="m 2514.8153,109.74869 c 0,0 7.3325,-16.105313 11.2433,-24.040523 3.2773,-6.649831 6.2677,-13.483331 10.2378,-19.744311 3.1198,-4.92022 6.3764,-9.88483 10.6034,-13.89414 2.7838,-2.64043 5.9374,-5.08171 9.5065,-6.49002 1.4912,-0.5884 3.1572,-0.88065 4.7533,-0.73127 3.2814,0.30712 6.6161,1.41158 9.3237,3.29072 6.5926,4.57546 11.0065,11.78095 15.4481,18.46458 5.3325,8.02438 9.0242,17.029461 13.2542,25.685871 6.5721,13.449123 12.3828,27.259053 18.8303,40.768343 3.0578,6.40718 5.8911,12.94128 9.4151,19.10444 2.37,4.14506 5.0006,8.15148 7.8611,11.97455 2.0592,2.75203 3.9172,5.8068 6.6729,7.86116 3.7626,2.80511 8.1995,5.86258 12.8886,5.66735 5.231,-0.21779 9.8823,-4.02553 13.8027,-7.49553 5.2676,-4.66228 8.4854,-11.24177 12.2488,-17.18485 2.3718,-3.74549 4.4814,-7.65679 6.49,-11.60892 2.8107,-5.5301 5.1609,-11.28249 7.7698,-16.91063 1.9663,-4.24191 6.8956,-14.68826 6.8956,-14.68826" id="path3102-3-0-0-2" inkscape:connector-curvature="0" sodipodi:nodetypes="csssssssssssssssssc"/>
</svg>