<?xml version="1.0" encoding="UTF-8"?>
<svg xmlns="http://www.w3.org/2000/svg" width="168" height="156" version="1.1">
	<path d="M 0,89 C 0,49.6 31.6,12 74,12 c 33.8,0 61,23.2 61,58 0,20.8 -16.2,44 -41,44 -22,0 -34,-14 -34,-31 -3.6,0 -6,6 -6,12 0,16.6 19.8,34 43,34 30.4,0 62,-27.8 62,-69 0,-25.6 -12.4,-47 -23,-60 13,11 32,32.8 32,67 0,39.4 -31.6,77 -74,77 -33.8,0 -61,-23.2 -61,-58 0,-20.8 16.2,-44 41,-44 22,0 34,14 34,31 3.6,0 6,-6 6,-12 C 114,44.4 94.2,27 71,27 40.6,27 9,54.8 9,96 9,121.6 21.4,143 32,156 19,145 0,123.2 0,89 z"/>
</svg>